<svg xmlns="http://www.w3.org/2000/svg" viewBox="0 0 100 99.83"><defs><style>.cls-1{fill:#fff;}</style></defs><g id="Layer_2" data-name="Layer 2"><g id="Layer_2-2" data-name="Layer 2"><path d="M87.91,63.19l10.59-1A49.84,49.84,0,0,0,100,50v0L89.65,46.7l9.58-5.42a50,50,0,0,0-3.55-11.61L84.52,30.94l6.77-9.14a50.89,50.89,0,0,0-7.92-9l-9.94,5.85L76,7.25A49.5,49.5,0,0,0,65.1,2.33l-6.81,9.55L56,.36a49.35,49.35,0,0,0-11.9,0L41.71,11.88,34.9,2.33A49.5,49.5,0,0,0,24.05,7.25l2.52,11.37-9.94-5.85a50.89,50.89,0,0,0-7.92,9l6.77,9.14L4.32,29.67A50,50,0,0,0,.77,41.28l9.58,5.42L0,50v0A49.84,49.84,0,0,0,1.5,62.17l10.59,1-7.86,7a50.26,50.26,0,0,0,6.4,10.67l9.75-3.26L16.16,86.8a50.15,50.15,0,0,0,10.22,7.27l7.41-6.78-.09,10a49.93,49.93,0,0,0,12.35,2.56l4-9.09,4,9.09A49.93,49.93,0,0,0,66.3,97.27l-.09-10,7.41,6.78A50.15,50.15,0,0,0,83.84,86.8l-4.22-9.25,9.75,3.26a50.26,50.26,0,0,0,6.4-10.67Z"/><circle class="cls-1" cx="50" cy="49.91" r="32.2"/><circle cx="50" cy="49.91" r="23.88"/><circle class="cls-1" cx="50.55" cy="49.91" r="11.86"/></g></g></svg>