<svg xmlns="http://www.w3.org/2000/svg" viewBox="0 0 523.3199 650"><defs><style>.cls-1{fill:#fff;}.cls-2,.cls-3{fill:none;}.cls-2{stroke:#fff;stroke-miterlimit:10;}</style></defs><g id="Layer_2" data-name="Layer 2"><g id="Layer_7" data-name="Layer 7"><path class="cls-1" d="M129.68,292.46h0c-17.61-140.62-4.49-170.88,4.54-201.7h0C113.67,111.53,59,125.64,0,137.45v148C43.47,289.42,101.23,293.85,129.68,292.46Z"/><path class="cls-2" d="M341.56,650.26c-2.77-15.91,7.44-52.72,7.44-117,0-12.88,4.48-93.49,16.65-166.5,11.89-71.37,4.77-135.59,4.77-135.59S437,207.43,451.29,128.93c6.89-38-1.66-77.38-28.54-123.7-1.14-2-1.76-3-2.95-5"/><path class="cls-2" d="M134.3.26c4.09,11.85,6.56,26.12,6.56,45.41a145.61,145.61,0,0,1-6.64,45.09h0c-9,30.81-22.14,61.08-4.53,201.7h0c1.52,12.06,3.25,24.92,5.24,38.67,3.18,22.09,17.57,62.8,31.41,100.85,13.7,37.72,26.87,72.84,28.06,84.68,2.37,23.79,7.13,102.3,7.13,102.3s.42,1.75,1,4.95c.26,1.43.56,3.14.87,5.12h0a203.16,203.16,0,0,1,2.41,21.23"/><path class="cls-1" d="M99.32,508.5c37.87,42.33,98,113.15,104.16,120.68-.31-2-.6-3.68-.87-5.11-.59-3.2-1-5-1-5s-3.26-75.56-5.64-99.34c-1.18-11.84-15.84-49.91-29.55-87.62-15.53-22.63-54-77.93-69.47-92.54C73.45,317.36,33.27,302.18.08,292.72v138.9C44.81,462.5,83.91,491.28,99.32,508.5Z"/><path class="cls-1" d="M181.35,172.5l-2-6.85L176,172a27.79,27.79,0,0,1-5.22-1.57l.75-7.11L166,167.86a27.91,27.91,0,0,1-4.21-3.45l3.41-6.28-6.82,2.12a28.07,28.07,0,0,1-2.58-4.8l5.56-4.5-7.12-.65a27.29,27.29,0,0,1-.53-5.42l6.85-2-6.33-3.32a28.58,28.58,0,0,1,1.58-5.22l7.11.75-4.58-5.49a28,28,0,0,1,3.46-4.21l6.28,3.41L166,122a27.39,27.39,0,0,1,4.8-2.58l4.5,5.56.65-7.12a26.87,26.87,0,0,1,5.37-.53h.05l2,6.85,3.32-6.33a27.1,27.1,0,0,1,5.22,1.58l-.75,7.11,5.49-4.58a28,28,0,0,1,4.21,3.46l-3.41,6.28,6.82-2.12a27.7,27.7,0,0,1,2.58,4.8l-5.56,4.5,7.12.64a26.66,26.66,0,0,1,.53,5.43l-6.85,2,6.33,3.32a27.1,27.1,0,0,1-1.58,5.22l-7.11-.75,4.58,5.49a28,28,0,0,1-3.46,4.21L194.6,161l2.12,6.82a28.07,28.07,0,0,1-4.8,2.58l-4.5-5.56-.65,7.12a27.65,27.65,0,0,1-5.38.53Zm.08-47a19.49,19.49,0,0,0-1.88,38.88c.64.06,1.29.09,1.93.09a19.49,19.49,0,0,0,1.88-38.88C182.72,125.51,182.07,125.48,181.43,125.48Z"/><path d="M181.28,117.4l1.91,6.47.18.59.28-.55,3.14-6a27.87,27.87,0,0,1,5,1.52l-.7,6.71-.07.61.47-.39,5.19-4.32a28.06,28.06,0,0,1,4.05,3.32l-3.22,5.93-.3.54.59-.18,6.44-2a28.14,28.14,0,0,1,2.48,4.62l-5.25,4.25-.48.38.62.06,6.72.61a28.42,28.42,0,0,1,.51,5.22l-6.47,1.91-.59.17.54.29,6,3.13a28,28,0,0,1-1.52,5l-6.71-.71-.61-.06.39.47,4.32,5.19a27.48,27.48,0,0,1-3.33,4.05l-5.92-3.22-.54-.3.18.59,2,6.44a27.35,27.35,0,0,1-4.62,2.47L187.71,165l-.38-.48-.06.61-.61,6.73a27.57,27.57,0,0,1-5.22.5l-1.91-6.46-.17-.59-.29.54-3.14,6a27.06,27.06,0,0,1-5-1.51l.71-6.71.06-.62-.47.4L166,167.71a28.13,28.13,0,0,1-4.05-3.33l3.22-5.92.3-.54-.59.18-6.44,2a26.88,26.88,0,0,1-2.47-4.61l5.24-4.25.48-.39-.61,0-6.73-.61a28.5,28.5,0,0,1-.51-5.22l6.47-1.91.59-.18-.54-.28-6-3.14a27.06,27.06,0,0,1,1.51-5l6.71.7.62.07-.4-.48-4.32-5.18a27.48,27.48,0,0,1,3.33-4l5.92,3.22.54.3-.18-.59-2-6.44a28.14,28.14,0,0,1,4.62-2.48l4.25,5.25.39.48,0-.62.61-6.72a28.5,28.5,0,0,1,5.22-.51m.2,47.18a19.61,19.61,0,0,0,1.89-39.13,18,18,0,0,0-1.94-.1,19.61,19.61,0,0,0-1.89,39.13c.64.06,1.29.1,1.94.1m-.15-47.43a27.73,27.73,0,0,0-5.5.55l-.63,6.91-4.36-5.39a27.78,27.78,0,0,0-5,2.67l2.06,6.62-6.09-3.31a27.55,27.55,0,0,0-3.59,4.38l4.44,5.32-6.9-.72a27.89,27.89,0,0,0-1.64,5.42l6.14,3.22-6.65,2a27.67,27.67,0,0,0,.56,5.64l6.9.63-5.39,4.36a27.82,27.82,0,0,0,2.68,5l6.61-2.06-3.31,6.09a28,28,0,0,0,4.38,3.59l5.33-4.44-.73,6.9a27.89,27.89,0,0,0,5.42,1.64l3.22-6.14,2,6.64h.14a27,27,0,0,0,5.49-.55l.63-6.9,4.36,5.39a27.82,27.82,0,0,0,5-2.68l-2.06-6.61,6.09,3.3a27.47,27.47,0,0,0,3.59-4.37l-4.44-5.33,6.9.73a27.89,27.89,0,0,0,1.64-5.42L202.45,147l6.65-2a27.57,27.57,0,0,0-.55-5.63l-6.91-.63,5.39-4.36a27.78,27.78,0,0,0-2.67-5l-6.62,2.06,3.31-6.09a27.55,27.55,0,0,0-4.38-3.59l-5.33,4.44.73-6.9a27.89,27.89,0,0,0-5.42-1.64l-3.22,6.14-2-6.65Zm.15,47.18c-.64,0-1.27,0-1.92-.1a19.36,19.36,0,0,1,1.87-38.63,17.9,17.9,0,0,1,1.92.1,19.36,19.36,0,0,1-1.87,38.63Z"/><path class="cls-3" d="M180.45,155.19a3,3,0,1,0,2.67,3.26A3,3,0,0,0,180.45,155.19Z"/><circle class="cls-3" cx="181.45" cy="144.96" r="6.93" transform="matrix(0.11, -0.99, 0.99, 0.11, 17.21, 309.17)"/><path class="cls-3" d="M189.75,151.91a3,3,0,1,0,2.67,3.26A3,3,0,0,0,189.75,151.91Z"/><path class="cls-1" d="M181.48,164.2c-.63,0-1.27,0-1.91-.09a19.24,19.24,0,0,1,1.86-38.38c.63,0,1.27,0,1.9.09a19.24,19.24,0,0,1-1.85,38.38Zm-1.33-9.15a3.1,3.1,0,0,0-.29,6.19l.3,0a3.1,3.1,0,0,0,.3-6.19Zm9.31-3.28a3.11,3.11,0,0,0-.3,6.2h.3a3.1,3.1,0,0,0,.3-6.19ZM171.22,150a3.11,3.11,0,0,0-.29,6.2h.3a3.1,3.1,0,0,0,.3-6.19Zm10.23-12.07a7.05,7.05,0,0,0-.69,14.07l.7,0a7,7,0,0,0,5.44-11.52,7,7,0,0,0-4.76-2.54A5.32,5.32,0,0,0,181.45,137.91Zm12.89,5.22a3.1,3.1,0,0,0-.29,6.19h.3a3.1,3.1,0,0,0,.3-6.19Zm-26.23-2.58a3.1,3.1,0,0,0-.3,6.19l.31,0a3.1,3.1,0,0,0,.3-6.19A1.67,1.67,0,0,0,168.11,140.55Zm23.12-6.86a3.1,3.1,0,0,0-.3,6.19l.31,0a3.1,3.1,0,0,0,.3-6.19ZM173,131.9a3.09,3.09,0,0,0-3.08,2.8,3.09,3.09,0,0,0,2.78,3.39l.31,0a3.1,3.1,0,0,0,.3-6.19Zm9.75-3.23a3.1,3.1,0,0,0-.3,6.19l.3,0a3.11,3.11,0,0,0,.3-6.2Z"/><path d="M181.43,125.85q.94,0,1.89.09a19.12,19.12,0,0,1-1.84,38.14c-.63,0-1.27,0-1.89-.1a19.11,19.11,0,0,1,1.84-38.13m1.32,9.15a3.23,3.23,0,0,0,.31-6.44l-.31,0a3.23,3.23,0,0,0-.32,6.45h.32M173,138.23a3.23,3.23,0,0,0,.31-6.44H173a3.23,3.23,0,0,0-.31,6.44H173M191.24,140a3.23,3.23,0,0,0,.31-6.44h-.32a3.23,3.23,0,0,0-.31,6.44h.32m-9.78,12.12a7.18,7.18,0,0,0,.69-14.32c-.23,0-.47,0-.7,0a7.17,7.17,0,0,0-.7,14.31,5.74,5.74,0,0,0,.71,0m-13.34-5.26a3.23,3.23,0,0,0,.31-6.44l-.32,0a3.23,3.23,0,0,0-.31,6.45h.32m26.23,2.58a3.21,3.21,0,0,0,3.21-2.92,3.22,3.22,0,0,0-2.9-3.52l-.32,0a3.23,3.23,0,0,0-.31,6.44l.32,0m-23.12,6.86a3.23,3.23,0,0,0,.31-6.45h-.32a3.23,3.23,0,0,0-.31,6.44l.32,0m18.23,1.79a3.23,3.23,0,0,0,.31-6.45h-.31a3.23,3.23,0,0,0-.32,6.44l.32,0m-9.3,3.27a3.21,3.21,0,0,0,3.21-2.91,3.15,3.15,0,0,0-.72-2.36,3.2,3.2,0,0,0-2.18-1.17h-.31a3.23,3.23,0,0,0-.32,6.44h.32m1.27-35.78a19.36,19.36,0,0,0-1.87,38.63c.65.06,1.28.1,1.92.1a19.36,19.36,0,0,0,1.87-38.63,17.9,17.9,0,0,0-1.92-.1Zm1.32,9.15h-.29a3,3,0,0,1,.29-6l.29,0a3,3,0,0,1-.29,5.94ZM173,138h-.3A3,3,0,0,1,173,132h.29A3,3,0,0,1,173,138Zm18.23,1.79h-.3a3,3,0,0,1,.29-5.94h.3a3,3,0,0,1-.29,5.94Zm-9.78,12.12-.68,0a6.93,6.93,0,0,1,.67-13.82l.68,0a6.93,6.93,0,0,1-.67,13.82Zm-13.34-5.26h-.3a3,3,0,0,1,.29-6l.3,0a3,3,0,0,1-.29,5.94Zm26.23,2.58-.29,0a3,3,0,0,1,.28-5.94l.3,0a3,3,0,0,1-.29,5.94Zm-23.12,6.86-.29,0a3,3,0,0,1,.28-5.94h.3a3,3,0,0,1-.29,5.95Zm18.23,1.79-.29,0a3,3,0,0,1,.29-5.94h.29a3,3,0,0,1-.29,6Zm-9.3,3.27h-.29a3,3,0,0,1,.29-5.94h.29a3,3,0,0,1-.29,5.94Z"/><path d="M222.94,145.7l-4.69-16.38-8.05,15a66.56,66.56,0,0,1-12.9-4l1.93-16.91-13.17,10.79a68.23,68.23,0,0,1-10.38-8.66l8.26-14.89-16.31,4.93a67.2,67.2,0,0,1-6.26-12L174.7,93l-16.94-1.68a67.1,67.1,0,0,1-1.23-13.46l16.38-4.69-15-8a67.52,67.52,0,0,1,4-12.9l16.91,1.93L168.07,41a67.59,67.59,0,0,1,8.65-10.38l14.89,8.26-4.92-16.31a66.48,66.48,0,0,1,12-6.25l10.59,13.32L211,12.65a66.87,66.87,0,0,1,12.76-1.23h.7L229.1,27.8l8-15a67.3,67.3,0,0,1,12.9,4l-1.93,16.91L261.28,23a67.11,67.11,0,0,1,10.38,8.65l-8.26,14.9,16.31-4.93a66.56,66.56,0,0,1,6.26,12L272.65,64.15l16.94,1.69a67,67,0,0,1,1.22,13.46L274.44,84l15,8.05a68,68,0,0,1-4,12.9L268.5,103l10.78,13.17a67.16,67.16,0,0,1-8.66,10.39l-14.89-8.27,4.93,16.31a67.2,67.2,0,0,1-12,6.26l-10.59-13.32-1.69,16.93a66.88,66.88,0,0,1-12.76,1.24Z"/><path class="cls-1" d="M223.7,11.55h.61l4.58,16,.17.59.29-.54,7.86-14.66a67.09,67.09,0,0,1,12.7,4L248,33.42,248,34l.48-.4,12.86-10.52a66.58,66.58,0,0,1,10.22,8.52l-8.07,14.54-.29.54.58-.18,15.93-4.81a66.72,66.72,0,0,1,6.16,11.79l-13,10.34-.48.39.61.06L289.48,66a67.25,67.25,0,0,1,1.21,13.26l-16,4.58-.59.17.54.29,14.66,7.85a67.82,67.82,0,0,1-4,12.7l-16.51-1.89-.62-.07.39.48,10.53,12.86a66.58,66.58,0,0,1-8.52,10.22l-14.54-8.07-.54-.29.18.59,4.81,15.92a66.72,66.72,0,0,1-11.79,6.16l-10.34-13-.39-.48-.06.61-1.64,16.54a67.42,67.42,0,0,1-12.65,1.21H223l-4.58-16-.17-.6-.29.55-7.85,14.65a67.79,67.79,0,0,1-12.7-4l1.88-16.52.07-.61-.47.39L186.06,134a67.16,67.16,0,0,1-10.22-8.52L183.9,111l.3-.54-.59.18-15.92,4.81a66.77,66.77,0,0,1-6.17-11.79l13-10.35.49-.38-.62-.06-16.54-1.65a67.15,67.15,0,0,1-1.21-13.25l16-4.58.59-.17-.54-.29L158,65a66.64,66.64,0,0,1,4-12.7l16.51,1.88.61.07-.39-.47L168.22,41a67.16,67.16,0,0,1,8.52-10.22l14.54,8.06.54.3-.18-.59-4.81-15.92a66.81,66.81,0,0,1,11.8-6.16l10.34,13,.38.48.06-.61,1.65-16.54a66.41,66.41,0,0,1,12.64-1.21m0-.25a66.41,66.41,0,0,0-12.87,1.25l-1.67,16.72L198.71,16.11a67.21,67.21,0,0,0-12.17,6.36l4.87,16.1L176.7,30.42A67.44,67.44,0,0,0,167.91,41l10.65,13-16.7-1.9a67.32,67.32,0,0,0-4.1,13.1l14.82,7.94-16.17,4.63a66.19,66.19,0,0,0,1.25,13.67l16.72,1.67-13.16,10.46a67.45,67.45,0,0,0,6.36,12.16l16.1-4.86-8.15,14.7a66.89,66.89,0,0,0,10.54,8.79l13-10.64-1.91,16.69a67.56,67.56,0,0,0,13.1,4.11l7.94-14.83,4.64,16.18h.79a67.3,67.3,0,0,0,12.88-1.25l1.66-16.72L248.64,141a66.87,66.87,0,0,0,12.17-6.35l-4.87-16.11,14.71,8.16a68,68,0,0,0,8.79-10.54l-10.65-13,16.7,1.91a67.53,67.53,0,0,0,4.1-13.1L274.77,84l16.17-4.64a67,67,0,0,0-1.25-13.67L273,64.06,286.12,53.6a66.87,66.87,0,0,0-6.35-12.17L263.66,46.3l8.16-14.71a68.07,68.07,0,0,0-10.55-8.79l-13,10.65,1.91-16.7a67.53,67.53,0,0,0-13.1-4.1l-8,14.82L224.5,11.3Z"/><path class="cls-1" d="M197.09,109.24a40.39,40.39,0,0,1-12.38-42.07c.35-1.16,1.25-1.89,1.95-1.63L196.38,69a1.5,1.5,0,0,1,.81,1.87,27.35,27.35,0,0,0,8.39,28.5,1.49,1.49,0,0,1,.33,2q-3.15,4.09-6.29,8.18C199.17,110.15,198,110,197.09,109.24Z"/><circle class="cls-1" cx="223.67" cy="78.56" r="18.02" transform="translate(52.74 242.83) rotate(-63.21)"/><path class="cls-1" d="M246.49,96.31l8.18,6.3c.59.45.47,1.6-.32,2.52a40.35,40.35,0,0,1-42.07,12.38c-1.16-.34-1.89-1.25-1.63-2l3.46-9.72A1.5,1.5,0,0,1,216,105a27.36,27.36,0,0,0,28.51-8.39A1.52,1.52,0,0,1,246.49,96.31Z"/><path class="cls-1" d="M250.24,47.89A40.35,40.35,0,0,1,262.62,90c-.34,1.16-1.25,1.89-1.94,1.63L251,88.13a1.5,1.5,0,0,1-.81-1.87,27.37,27.37,0,0,0-8.39-28.51,1.49,1.49,0,0,1-.33-2l6.3-8.18C248.17,47,249.32,47.1,250.24,47.89Z"/><path class="cls-1" d="M235.06,39.59c1.16.34,1.89,1.25,1.63,1.95q-1.74,4.86-3.46,9.72a1.5,1.5,0,0,1-1.87.81,27.37,27.37,0,0,0-28.51,8.39,1.49,1.49,0,0,1-2,.32l-8.18-6.29c-.59-.45-.47-1.61.32-2.52A40.35,40.35,0,0,1,235.06,39.59Z"/><path d="M335.68,234.71a20.93,20.93,0,0,1-2.86-.2l-.77-5.22L329,233.56a20.13,20.13,0,0,1-3.55-1.66l1.3-5.11-4.5,2.76a20.05,20.05,0,0,1-2.64-2.9l3.16-4.22-5.21.83a20.61,20.61,0,0,1-1.34-3.68l4.53-2.71-5.13-1.21a20.53,20.53,0,0,1,.19-3.92L321,211l-4.27-3.09a20.17,20.17,0,0,1,1.66-3.55l5.12,1.29-2.77-4.49a19.68,19.68,0,0,1,2.89-2.65l4.23,3.15-.83-5.2a20.36,20.36,0,0,1,3.69-1.34l2.69,4.54,1.23-5.14c.35,0,.7,0,1,0a20,20,0,0,1,2.88.2l.75,5.22,3.1-4.27a19.44,19.44,0,0,1,3.55,1.66l-1.3,5.11,4.5-2.76a20.31,20.31,0,0,1,2.64,2.9l-3.16,4.22,5.21-.84a20.85,20.85,0,0,1,1.34,3.69l-4.53,2.7,5.12,1.22a20.59,20.59,0,0,1-.17,3.92l-5.22.76,4.27,3.09a19.84,19.84,0,0,1-1.66,3.55l-5.11-1.29,2.76,4.49a20.38,20.38,0,0,1-2.9,2.65l-4.22-3.16.83,5.21a20.64,20.64,0,0,1-3.69,1.34L338,229.55l-1.23,5.14Z"/><path class="cls-1" d="M335.66,194.35v.25a20,20,0,0,1,2.77.19l.69,4.83.09.61.36-.5,2.87-3.95a20.12,20.12,0,0,1,3.36,1.57l-1.2,4.72-.16.59.53-.32,4.15-2.55a20.47,20.47,0,0,1,2.5,2.75l-2.91,3.9-.37.49.61-.09,4.81-.78a20.16,20.16,0,0,1,1.26,3.49l-4.18,2.5-.53.31.6.15,4.73,1.12a20,20,0,0,1-.16,3.71l-4.82.7-.61.09.5.36,3.94,2.86a20.17,20.17,0,0,1-1.57,3.36l-4.72-1.2-.6-.15.32.52,2.56,4.16a20.53,20.53,0,0,1-2.75,2.5l-3.9-2.91-.5-.37.1.61.77,4.8a20.54,20.54,0,0,1-3.49,1.28l-2.49-4.2-.31-.53-.14.6-1.14,4.75-1,0a20.91,20.91,0,0,1-2.74-.19l-.71-4.83-.09-.61-.36.5-2.85,3.95a19.4,19.4,0,0,1-3.36-1.57l1.19-4.72.16-.6-.53.32-4.15,2.55a19,19,0,0,1-2.5-2.74l2.92-3.9.36-.5-.6.1-4.82.78a19.49,19.49,0,0,1-1.26-3.49l4.18-2.5.53-.32-.6-.14-4.74-1.12a20,20,0,0,1,.18-3.71l4.81-.7.61-.09-.5-.36-3.94-2.86a20.17,20.17,0,0,1,1.57-3.36l4.73,1.2.59.15-.32-.53-2.56-4.15a20.33,20.33,0,0,1,2.74-2.5l3.91,2.91.5.37-.1-.61-.77-4.81a20.82,20.82,0,0,1,3.49-1.27l2.49,4.2.31.53.15-.6,1.13-4.75.94,0v-.25m0,0-1.14,0-1.18,4.93L330.76,195a20.64,20.64,0,0,0-3.89,1.42l.8,5-4.06-3a20.19,20.19,0,0,0-3.05,2.78l2.66,4.31-4.91-1.24a21.19,21.19,0,0,0-1.75,3.74l4.1,3-5,.73a21.07,21.07,0,0,0-.19,4.13l4.92,1.17L316,219.52a19.27,19.27,0,0,0,1.41,3.88l5-.8-3,4.05a19.77,19.77,0,0,0,2.78,3l4.31-2.64-1.24,4.9a20.2,20.2,0,0,0,3.74,1.75l3-4.1.73,5a21.09,21.09,0,0,0,3,.22c.39,0,.78,0,1.16,0l1.18-4.93,2.59,4.36a20.8,20.8,0,0,0,3.88-1.42l-.8-5,4.05,3a19.36,19.36,0,0,0,3.06-2.79l-2.66-4.31L353,225a21,21,0,0,0,1.75-3.75l-4.1-3,5-.73a20.32,20.32,0,0,0,.18-4.13L351,212.26l4.34-2.59a19.67,19.67,0,0,0-1.41-3.88l-5,.8,3-4.05a20.86,20.86,0,0,0-2.78-3.06l-4.31,2.65,1.24-4.9a19.57,19.57,0,0,0-3.74-1.75l-3,4.1-.72-5a20,20,0,0,0-3-.22Z"/><path class="cls-1" d="M327.4,221.74a2.05,2.05,0,0,1-1.06-3.81,2,2,0,0,1,1.05-.29,2.05,2.05,0,0,1,1.06,3.81A2,2,0,0,1,327.4,221.74Z"/><path d="M327.39,217.76h0a1.92,1.92,0,0,1,1.65.93,1.94,1.94,0,0,1-.65,2.65,1.93,1.93,0,1,1-1-3.58m0-.25a2.1,2.1,0,0,0-1.12.32,2.17,2.17,0,1,0,1.12-.32Z"/><path class="cls-1" d="M330.61,208.36a2,2,0,1,1,2-1.56,2.06,2.06,0,0,1-2,1.56Z"/><path d="M330.61,204.39a1.94,1.94,0,0,1,1.87,2.38,2,2,0,0,1-.88,1.19,1.92,1.92,0,0,1-2.64-.65,2,2,0,0,1-.22-1.46,1.93,1.93,0,0,1,1.87-1.46m0-.25a2.21,2.21,0,0,0-1.13.31,2.17,2.17,0,1,0,3,.74,2.14,2.14,0,0,0-1.85-1.05Z"/><path class="cls-1" d="M344,211.72a2,2,0,0,1-1.06-3.8,2,2,0,0,1,1.05-.3,2,2,0,0,1,1.76,1,2.06,2.06,0,0,1-.69,2.81A2.09,2.09,0,0,1,344,211.72Z"/><path d="M343.94,207.75h0a1.92,1.92,0,0,1,1.65.93,1.89,1.89,0,0,1,.23,1.45,2,2,0,0,1-.88,1.19,1.93,1.93,0,1,1-1-3.57m0-.25a2.2,2.2,0,0,0-1.12.31,2.18,2.18,0,0,0,1.13,4,2.18,2.18,0,0,0,0-4.35Z"/><path class="cls-1" d="M344.72,218.88a2.06,2.06,0,0,1-2-2.54,2,2,0,0,1,2-1.56,2,2,0,0,1,1.76,1,2,2,0,0,1-1.75,3.11Z"/><path d="M344.71,214.9h0a1.93,1.93,0,0,1,1,3.58,1.94,1.94,0,0,1-2.64-.66,1.94,1.94,0,0,1-.22-1.45,1.92,1.92,0,0,1,1.86-1.47m0-.25a2.1,2.1,0,0,0-1.12.32,2.17,2.17,0,1,0,3,.73,2.2,2.2,0,0,0-1.87-1Z"/><path class="cls-1" d="M333.38,225.74a2,2,0,0,1-1.76-1,2.06,2.06,0,0,1,.69-2.81,2,2,0,0,1,1.06-.3,2.05,2.05,0,1,1,0,4.1Z"/><path d="M333.37,221.77h0a1.93,1.93,0,0,1,0,3.85,1.93,1.93,0,0,1-1-3.58,1.91,1.91,0,0,1,1-.27m0-.25a2.18,2.18,0,1,0,1.87,1,2.18,2.18,0,0,0-1.87-1Z"/><path class="cls-1" d="M335.68,219.61a4.93,4.93,0,0,1-2.56-9.15,5,5,0,0,1,2.55-.71,4.93,4.93,0,0,1,0,9.86Z"/><path d="M335.67,209.63v.25a4.75,4.75,0,0,1,4.11,2.31,4.82,4.82,0,0,1-1.62,6.6,4.79,4.79,0,0,1-6.6-1.62,4.8,4.8,0,0,1,4.11-7.29v-.25m0,0a5.05,5.05,0,1,0,4.33,2.43,5,5,0,0,0-4.33-2.43Z"/><path class="cls-1" d="M326.45,214.3a2,2,0,0,1-1.75-1,2.06,2.06,0,1,1,1.75,1Z"/><path d="M326.46,210.33h0a1.92,1.92,0,0,1,1,3.57,2,2,0,0,1-1,.28,1.92,1.92,0,0,1-1-3.57,2,2,0,0,1,1-.28m0-.25a2.11,2.11,0,0,0-1.13.32,2.17,2.17,0,0,0,1.12,4,2.18,2.18,0,1,0,0-4.35Z"/><path class="cls-1" d="M337.8,207.44a2,2,0,0,1-1.06-3.8,2.1,2.1,0,0,1,1.06-.3,2,2,0,0,1,1.06,3.8A2,2,0,0,1,337.8,207.44Z"/><path d="M337.8,203.47h0a1.92,1.92,0,1,1-1.65,2.92,2,2,0,0,1-.22-1.46,1.92,1.92,0,0,1,.88-1.18,1.83,1.83,0,0,1,1-.28m0-.25a2.17,2.17,0,1,0,1.86,1,2.18,2.18,0,0,0-1.86-1Z"/><path class="cls-1" d="M340.57,224.82a2,2,0,0,1-1.07-3.8,2,2,0,0,1,2.82.69,2.05,2.05,0,0,1,.23,1.55,2,2,0,0,1-2,1.56Z"/><path d="M340.57,220.85h0a1.9,1.9,0,0,1,1.64.93,1.91,1.91,0,0,1-.65,2.63,1.83,1.83,0,0,1-1,.28,1.9,1.9,0,0,1-1.65-.93,1.84,1.84,0,0,1-.22-1.45,1.93,1.93,0,0,1,1.87-1.46m0-.25a2.17,2.17,0,0,0-1.86,3.3,2.17,2.17,0,1,0,1.86-3.3Z"/><path d="M248.85,278.39l-7.48,18.44A74.94,74.94,0,0,1,226.94,294l.15-19.91-14,14.18a76.84,76.84,0,0,1-12.22-8.18l7.74-18.33-18.32,7.75a75.59,75.59,0,0,1-8.18-12.23l14.17-14-19.91.14A75.69,75.69,0,0,1,173.54,229L192,221.51,173.54,214a75.69,75.69,0,0,1,2.85-14.43l19.91.15-14.17-14a75.07,75.07,0,0,1,8.18-12.22l18.32,7.74L200.89,163a76,76,0,0,1,12.22-8.18l14,14.17-.15-19.91a75.69,75.69,0,0,1,14.43-2.85l7.48,18.43,7.48-18.43a75.69,75.69,0,0,1,14.43,2.85L270.62,169l14-14.17A76,76,0,0,1,296.82,163l-7.75,18.32,18.33-7.74a76.39,76.39,0,0,1,8.18,12.22l-14.18,14,19.91-.15A75.71,75.71,0,0,1,324.17,214l-18.44,7.48L324.17,229a75.71,75.71,0,0,1-2.86,14.43l-19.91-.14,14.18,14a75.59,75.59,0,0,1-8.18,12.23l-18.33-7.75,7.75,18.33a76.92,76.92,0,0,1-12.23,8.18l-14-14.18.14,19.91a74.94,74.94,0,0,1-14.43,2.86Zm0-107.12a50.58,50.58,0,1,0,50.58,50.58A50.63,50.63,0,0,0,248.85,171.27Z"/><path class="cls-1" d="M241.05,146.73l6.87,17,.93,2.28.93-2.28,6.88-17a75.43,75.43,0,0,1,13.6,2.69l-.13,18.31,0,2.46,1.73-1.75,12.84-13a75,75,0,0,1,11.53,7.72L289.09,180l-1,2.27,2.27-1,16.85-7.12A75.72,75.72,0,0,1,315,185.68l-13,12.84-1.76,1.73h2.46l18.31-.14a75.37,75.37,0,0,1,2.69,13.61l-16.95,6.88-2.28.92,2.28.93,16.95,6.88a75.43,75.43,0,0,1-2.69,13.6l-18.31-.13-2.46,0,1.76,1.73,13,12.84a75.72,75.72,0,0,1-7.71,11.53l-16.85-7.12-2.27-1,1,2.27,7.12,16.85a75.72,75.72,0,0,1-11.53,7.71l-12.84-13-1.73-1.76,0,2.47.13,18.3a74.58,74.58,0,0,1-13.6,2.69l-6.88-17-.93-2.28-.93,2.28-6.87,17a75.37,75.37,0,0,1-13.61-2.69l.14-18.3v-2.47l-1.73,1.76-12.84,13a75.72,75.72,0,0,1-11.53-7.71l7.12-16.85,1-2.27-2.27,1-16.84,7.12a75,75,0,0,1-7.72-11.53l13-12.84,1.75-1.73-2.46,0-18.31.13a75.43,75.43,0,0,1-2.69-13.6l17-6.88,2.28-.93-2.28-.92-17-6.88a75.37,75.37,0,0,1,2.69-13.61l18.31.14h2.46l-1.75-1.73-13-12.84a75,75,0,0,1,7.72-11.53l16.84,7.12,2.27,1-1-2.27-7.12-16.84A75,75,0,0,1,213,155.4l12.84,13,1.73,1.75v-2.46l-.14-18.31a75.37,75.37,0,0,1,13.61-2.69m7.8,126.19a51.08,51.08,0,1,0-51.07-51.07,51.14,51.14,0,0,0,51.07,51.07M256,145.66l-7.16,17.64-7.16-17.64a76.15,76.15,0,0,0-15.25,3l.14,19.06-13.37-13.57a75.74,75.74,0,0,0-12.93,8.65l7.41,17.53-17.53-7.41a75.74,75.74,0,0,0-8.65,12.93l13.57,13.37L176,199.1a76.15,76.15,0,0,0-3,15.25l17.64,7.16L173,228.67a76,76,0,0,0,3,15.25l19.06-.13-13.57,13.37a75.27,75.27,0,0,0,8.65,12.92l17.53-7.41-7.41,17.54a76.28,76.28,0,0,0,12.93,8.64l13.37-13.56-.14,19a75.45,75.45,0,0,0,15.25,3l7.16-17.64L256,297.36a75.32,75.32,0,0,0,15.25-3l-.13-19,13.37,13.56a75.8,75.8,0,0,0,12.92-8.64L290,262.67l17.54,7.41a75.8,75.8,0,0,0,8.64-12.92l-13.56-13.37,19.05.13a75.32,75.32,0,0,0,3-15.25l-17.64-7.16,17.64-7.16a75.45,75.45,0,0,0-3-15.25l-19.05.14,13.56-13.37a76.28,76.28,0,0,0-8.64-12.93L290,180.35l7.41-17.53a75.27,75.27,0,0,0-12.92-8.65l-13.37,13.57.13-19.06a76,76,0,0,0-15.25-3Zm-7.16,126.26a50.08,50.08,0,1,1,50.08-50.07,50.07,50.07,0,0,1-50.08,50.07Z"/><path d="M248.85,265.12a43.28,43.28,0,1,1,43.28-43.27A43.33,43.33,0,0,1,248.85,265.12Zm0-71.27a28,28,0,1,0,28,28A28,28,0,0,0,248.85,193.85Z"/><path class="cls-1" d="M248.85,179.07a42.78,42.78,0,1,1-42.78,42.78,42.83,42.83,0,0,1,42.78-42.78m0,71.27a28.5,28.5,0,1,0-28.49-28.49,28.53,28.53,0,0,0,28.49,28.49m0-72.27a43.78,43.78,0,1,0,43.78,43.78,43.78,43.78,0,0,0-43.78-43.78Zm0,71.27a27.5,27.5,0,1,1,27.5-27.49,27.49,27.49,0,0,1-27.5,27.49Z"/><path class="cls-1" d="M441.22,134.82c.41-1.85.78-3.72,1.07-5.62l-25.09-6.55,25.89-.94c.13-1.89.22-3.8.23-5.72l-25.77-2.83,25.5-4.7c-.15-1.91-.34-3.81-.6-5.69l-25.94,1,24.59-8.38c-.43-1.86-.9-3.71-1.44-5.53l-25.55,4.73,23.13-11.88c-.69-1.78-1.43-3.54-2.23-5.26l-24.61,8.4,21.16-15.13c-.94-1.66-1.93-3.28-3-4.88L405.45,77.71,424.2,59.65c-1.17-1.5-2.39-3-3.65-4.39L399.38,70.42l15.93-20.61c-1.38-1.31-2.79-2.59-4.24-3.82L392.31,64.08l12.77-22.72q-2.32-1.65-4.75-3.17L384.4,58.85l9.33-24.37c-1.69-.86-3.41-1.68-5.15-2.43L375.81,54.82l5.68-25.48c-1.79-.6-3.61-1.16-5.45-1.65l-9.32,24.39,1.91-26q-2.79-.51-5.64-.84L357.33,50.7l-1.9-26c-.95,0-1.89-.07-2.85-.07s-1.9,0-2.85.07l-1.89,26-5.67-25.48q-2.85.33-5.64.84l1.92,26-9.32-24.39c-1.85.49-3.66,1-5.46,1.65l5.69,25.48L316.59,32.05c-1.75.75-3.46,1.57-5.15,2.43l9.33,24.37L304.83,38.19q-2.43,1.52-4.75,3.17l12.77,22.72L294.1,46c-1.46,1.23-2.87,2.51-4.24,3.82l15.92,20.61L284.61,55.26c-1.26,1.42-2.47,2.89-3.64,4.39l18.74,18.06L276.57,65.8c-1,1.6-2,3.22-3,4.88l21.17,15.13-24.62-8.4c-.79,1.72-1.54,3.48-2.23,5.26l23.13,11.88L265.5,89.82c-.53,1.82-1,3.67-1.43,5.53l24.58,8.38-25.93-1q-.39,2.82-.6,5.69l25.5,4.7L261.84,116c0,1.92.1,3.83.23,5.72l25.89.94-25.08,6.55c.29,1.9.66,3.77,1.06,5.62L289.69,132l-23.85,10.13c.56,1.83,1.19,3.63,1.87,5.41l25-6.56-22.1,13.48c.83,1.73,1.72,3.42,2.65,5.09l23.79-10.12-19.87,16.52c1.06,1.59,2.19,3.14,3.36,4.65l22-13.46-17.24,19.23c1.29,1.42,2.64,2.78,4,4.11L309.2,164,295,185.47c1.48,1.22,3,2.37,4.56,3.5l17.2-19.21-11,23.35c1.64,1,3.32,1.91,5,2.8L325,174.4l-7.44,24.7c1.76.74,3.56,1.41,5.37,2l10.93-23.34-3.76,25.52c1.85.47,3.72.86,5.61,1.22l7.42-24.67v25.77c1.89.19,3.81.32,5.73.39l3.74-25.47L356.32,206q2.9-.11,5.74-.39V179.86l7.41,24.67c1.89-.36,3.77-.75,5.62-1.22l-3.77-25.52,10.93,23.34c1.82-.62,3.62-1.29,5.38-2l-7.44-24.7,14.21,21.51c1.7-.89,3.39-1.81,5-2.8l-11-23.35L405.65,189c1.55-1.13,3.08-2.28,4.56-3.5L396,164l19.82,16.5c1.38-1.33,2.72-2.69,4-4.11l-17.24-19.23,22,13.46c1.16-1.51,2.29-3.06,3.36-4.65l-19.88-16.52,23.79,10.12c.93-1.67,1.82-3.36,2.65-5.09L412.41,141l25,6.56q1-2.67,1.88-5.41L415.48,132Z"/><circle cx="352.58" cy="115.32" r="48.44"/><circle class="cls-1" cx="352.58" cy="115.32" r="31.39"/><path class="cls-1" d="M332,285.79a27.45,27.45,0,0,1-4-.29l-1-7.08-4.19,5.79a27.74,27.74,0,0,1-4.94-2.3l1.76-6.93-6.1,3.74a27.9,27.9,0,0,1-3.67-4L314.1,269,307,270.09a26.93,26.93,0,0,1-1.86-5.12l6.14-3.67-7-1.65a28.37,28.37,0,0,1,.26-5.45l7.07-1L305.9,249a29.22,29.22,0,0,1,2.3-4.94l6.94,1.76-3.75-6.09a27.19,27.19,0,0,1,4-3.68l5.73,4.27L320,233.25a28.16,28.16,0,0,1,5.13-1.87l3.65,6.15,1.66-7c.49,0,1,0,1.47,0a28.26,28.26,0,0,1,4,.29l1,7.08,4.21-5.79a28,28,0,0,1,4.93,2.3l-1.76,6.93,6.1-3.74a28.81,28.81,0,0,1,3.67,4l-4.28,5.73,7.06-1.13a28.2,28.2,0,0,1,1.87,5.12L352.58,255l6.95,1.66a26.91,26.91,0,0,1-.25,5.45l-7.06,1,5.78,4.19a27.83,27.83,0,0,1-2.31,4.94l-6.93-1.76,3.75,6.09a26.7,26.7,0,0,1-4,3.68L342.75,276l1.13,7.05a28.07,28.07,0,0,1-5.12,1.87l-3.66-6.15-1.66,7C332.94,285.77,332.45,285.79,332,285.79Zm-3.16-18.26a3.11,3.11,0,0,0-1.6.44,3.13,3.13,0,1,0,1.6-.44Zm9.86-1.26a3.11,3.11,0,0,0-1.6.44,3.15,3.15,0,0,0-1.41,1.92A3.08,3.08,0,0,0,336,271a3.11,3.11,0,0,0,2.65,1.49,3,3,0,0,0,1.61-.45,3.1,3.1,0,0,0-1.61-5.75ZM320.59,262a3.1,3.1,0,0,0-2.65,4.71,3.1,3.1,0,0,0,2.67,1.5,3.11,3.11,0,0,0,2.65-4.71A3.1,3.1,0,0,0,320.59,262Zm11.35-10.82a7.15,7.15,0,0,0-3.65,1,7.06,7.06,0,1,0,3.65-1Zm12.4,6.9a3.09,3.09,0,0,0-2.64,4.71,3.1,3.1,0,0,0,4.25,1.06,3.11,3.11,0,0,0-1.61-5.77Zm-25-6.27a3,3,0,0,0-1.6.45,3.1,3.1,0,0,0,1.6,5.76,3.18,3.18,0,0,0,1.61-.45,3.1,3.1,0,0,0-1.61-5.76Zm24-3.54a3.07,3.07,0,0,0-1.59.44,3.11,3.11,0,0,0,1.61,5.77,3.11,3.11,0,0,0,0-6.21ZM325,243.7a3.19,3.19,0,0,0-1.62.45,3,3,0,0,0-1.4,1.92,3.1,3.1,0,0,0,3,3.84,3,3,0,0,0,1.6-.45,3.1,3.1,0,0,0-1.6-5.76Zm9.85-1.26a3.11,3.11,0,1,0,0,6.21,3.18,3.18,0,0,0,1.61-.45,3.1,3.1,0,0,0-1.61-5.76Z"/><path d="M331.93,230.66a28.08,28.08,0,0,1,3.87.27l1,6.69.08.61.37-.5,4-5.47a27.35,27.35,0,0,1,4.75,2.21L344.27,241l-.15.6.52-.32,5.76-3.53a27.68,27.68,0,0,1,3.52,3.87l-4,5.41-.37.49.61-.1,6.66-1.07a27.37,27.37,0,0,1,1.79,4.93l-5.8,3.46-.52.31.59.15,6.56,1.56a27.07,27.07,0,0,1-.24,5.24l-6.67,1-.61.09.5.36,5.46,3.95a27.54,27.54,0,0,1-2.22,4.76l-6.54-1.67-.6-.15.33.53,3.54,5.75a27.89,27.89,0,0,1-3.88,3.54l-5.41-4-.49-.37.1.61,1.06,6.66a28.47,28.47,0,0,1-4.92,1.8L335.36,279l-.31-.53-.14.6-1.57,6.57c-.46,0-.93,0-1.39,0a27.47,27.47,0,0,1-3.85-.27l-1-6.68-.09-.61-.36.5-4,5.46a27.7,27.7,0,0,1-4.75-2.21l1.66-6.54.16-.6-.53.32-5.75,3.53a26.32,26.32,0,0,1-3.53-3.87l4-5.41.37-.49-.61.1L307.11,270a27.3,27.3,0,0,1-1.79-4.93l5.8-3.46.53-.32-.6-.14-6.57-1.56a27.81,27.81,0,0,1,.25-5.24l6.67-1,.61-.09-.5-.36-5.46-3.95a28.53,28.53,0,0,1,2.21-4.75l6.55,1.66.6.15-.32-.53-3.55-5.75a27.17,27.17,0,0,1,3.88-3.53l5.41,4,.49.37-.09-.61-1.07-6.66a28.27,28.27,0,0,1,4.93-1.8l3.45,5.81.31.53.15-.6,1.56-6.57c.46,0,.91,0,1.37,0m2.93,18.11a3.28,3.28,0,0,0,1.67-.46,3.23,3.23,0,1,0-4.8-3.54,3.22,3.22,0,0,0,3.13,4M325,250a3.25,3.25,0,0,0,3.13-2.46,3.24,3.24,0,0,0-3.13-4,3.24,3.24,0,0,0-1.68.48,3.15,3.15,0,0,0-1.46,2,3.23,3.23,0,0,0,3.14,4m18.29,4.6a3.22,3.22,0,0,0,2.75-4.89,3.21,3.21,0,0,0-2.77-1.57,3.16,3.16,0,0,0-1.66.47,3.22,3.22,0,0,0,1.68,6M332,265.46a7.18,7.18,0,1,0,0-14.36A7.18,7.18,0,0,0,325.8,262a7.15,7.15,0,0,0,6.15,3.46m-12.64-7.28a3.23,3.23,0,0,0,2.77-4.9,3.23,3.23,0,1,0-2.77,4.9m25.05,6.27a3.22,3.22,0,0,0,2.75-4.9,3.23,3.23,0,0,0-2.77-1.56,3.19,3.19,0,0,0-1.67.47,3.22,3.22,0,0,0-1.08,4.43,3.2,3.2,0,0,0,2.77,1.56m-23.75,3.92a3.23,3.23,0,1,0,0-6.46,3.16,3.16,0,0,0-1.66.47,3.23,3.23,0,0,0,1.68,6m18.05,4.23a3.32,3.32,0,0,0,1.67-.47,3.17,3.17,0,0,0,1.46-2,3.23,3.23,0,1,0-5.9.9,3.25,3.25,0,0,0,2.77,1.56m-9.86,1.26a3.28,3.28,0,0,0,1.67-.46,3.25,3.25,0,0,0,1.09-4.44,3.21,3.21,0,0,0-2.77-1.56,3.22,3.22,0,0,0-2.76,4.9,3.21,3.21,0,0,0,2.77,1.56m3.13-43.45c-.52,0-1,0-1.57,0l-1.61,6.76-3.54-6a28,28,0,0,0-5.33,2L321,240l-5.56-4.15a27.77,27.77,0,0,0-4.19,3.82l3.64,5.91-6.73-1.7a28.8,28.8,0,0,0-2.39,5.13l5.61,4.06-6.85,1a28.13,28.13,0,0,0-.27,5.66l6.75,1.61-6,3.55a27.69,27.69,0,0,0,1.94,5.32l6.85-1.1-4.15,5.56a27.16,27.16,0,0,0,3.81,4.18l5.91-3.62L317.68,282a28.44,28.44,0,0,0,5.13,2.39l4.07-5.62,1,6.87a27.67,27.67,0,0,0,4.07.3c.53,0,1.06,0,1.59,0l1.61-6.76,3.55,6a27.92,27.92,0,0,0,5.32-1.95l-1.1-6.84,5.56,4.15a28.26,28.26,0,0,0,4.19-3.82L349,270.72l6.72,1.7a27.51,27.51,0,0,0,2.4-5.13l-5.61-4.06,6.85-1a27.41,27.41,0,0,0,.26-5.66L352.91,255l6-3.55a28.33,28.33,0,0,0-1.93-5.32l-6.85,1.1,4.14-5.56a28.11,28.11,0,0,0-3.8-4.18l-5.92,3.62,1.71-6.72a28.44,28.44,0,0,0-5.13-2.39L337,237.58l-1-6.87a27.94,27.94,0,0,0-4.09-.3Zm2.93,18.11a3,3,0,0,1,0-6,3,3,0,0,1,1.54,5.54,3,3,0,0,1-1.54.42ZM325,249.79a3,3,0,0,1-1.55-5.53,2.92,2.92,0,0,1,1.55-.44,3,3,0,0,1,1.54,5.53,2.94,2.94,0,0,1-1.54.44Zm18.29,4.6a3,3,0,1,1,1.53-.42,2.94,2.94,0,0,1-1.53.42ZM332,265.21a6.94,6.94,0,1,1,3.58-1,6.92,6.92,0,0,1-3.58,1Zm-12.64-7.28a3,3,0,0,1-1.54-5.52,3,3,0,0,1,4.09,1,3,3,0,0,1-2.55,4.52Zm25.05,6.27a3,3,0,1,1,0-6,3,3,0,0,1,1.55,5.54,2.94,2.94,0,0,1-1.53.42Zm-23.75,3.92a3,3,0,1,1,1.53-.42,2.94,2.94,0,0,1-1.53.42Zm18.05,4.23a3,3,0,0,1-1.55-5.53,3,3,0,1,1,3.09,5.09,2.91,2.91,0,0,1-1.54.44Zm-9.86,1.26a3,3,0,1,1,1.54-.42,3.05,3.05,0,0,1-1.54.42Z"/></g></g></svg>